<?xml version="1.0" encoding="UTF-8" standalone="no"?>
<svg
   viewBox="0 0 900 300"
   height="300"
   width="900"
   style="width:100%;"
   version="1.1"
   sodipodi:docname="logo.svg"
   inkscape:version="1.4 (e7c3feb1, 2024-10-09)"
   id="svg16"
   xmlns:inkscape="http://www.inkscape.org/namespaces/inkscape"
   xmlns:sodipodi="http://sodipodi.sourceforge.net/DTD/sodipodi-0.dtd"
   xmlns="http://www.w3.org/2000/svg"
   xmlns:svg="http://www.w3.org/2000/svg">
  <defs
     id="defs16" />
  <sodipodi:namedview
     id="namedview16"
     pagecolor="#ffffff"
     bordercolor="#000000"
     borderopacity="0.25"
     inkscape:showpageshadow="2"
     inkscape:pageopacity="0.0"
     inkscape:pagecheckerboard="0"
     inkscape:deskcolor="#d1d1d1"
     inkscape:zoom="0.7776037"
     inkscape:cx="513.75784"
     inkscape:cy="167.82327"
     inkscape:window-width="1280"
     inkscape:window-height="452"
     inkscape:window-x="0"
     inkscape:window-y="25"
     inkscape:window-maximized="0"
     inkscape:current-layer="g16" />
  <g
     inkscape:label="logo"
     transform="translate(-52.88186,-215.91867)"
     id="g16">
    <rect
       style="display:none;fill:#f3f1ee;fill-opacity:1"
       width="900"
       height="300"
       x="1.6570605"
       y="1.6570605"
       transform="translate(54.88186,221.91867)"
       id="rect1" />
    <rect
       x="131.35785"
       y="281.38559"
       class="c1"
       width="24.381559"
       height="141.0304"
       stroke-width="0"
       stroke-linejoin="miter"
       stroke-miterlimit="2"
       fill="#444444"
       stroke="#444444"
       style="font-style:normal;font-weight:700;font-size:72px;line-height:1;font-family:'Brandmark Sans 4 Spectrum';font-variant-ligatures:normal;text-align:center;text-anchor:middle"
       id="rect2" />
    <path
       class="c3"
       d="m 217.11009,362.10203 c -6.5968,-17.11642 -23.04792,-28.4074 -41.39125,-28.4074 -6.94151,-0.009 -13.7872,1.62092 -19.97943,4.75776 v -5.6e-4 c -14.95172,7.54012 -24.38212,22.85808 -24.38212,39.60264 0,16.7454 9.43012,32.06196 24.38075,39.60264 v 0.002 c 16.37745,8.26196 36.15105,5.59132 49.75009,-6.71888 13.59904,-12.31104 18.2182,-31.72148 11.62196,-48.83816 z m -41.39125,35.9324 c -11.02587,0 -19.96487,-8.93116 -19.97943,-19.95338 v -0.054 c 0.0146,-11.0222 8.95356,-19.95339 19.97943,-19.95339 11.0348,0 19.98021,8.94544 19.98021,19.98024 -0.0112,11.02979 -8.95048,19.96823 -19.98021,19.98055 z"
       stroke-width="0"
       stroke-linejoin="miter"
       stroke-miterlimit="2"
       fill="#d7bb00"
       stroke="#d7bb00"
       style="font-style:normal;font-weight:700;font-size:72px;line-height:1;font-family:'Brandmark Sans 4 Spectrum';font-variant-ligatures:normal;text-align:center;text-anchor:middle"
       id="path2" />
    <path
       class="c2"
       d="m 155.73941,417.65991 v -39.57884 -0.054 -39.57466 -5.6e-4 c -14.94584,7.53732 -24.374,22.84632 -24.38156,39.5836 v 0.0381 c 0.008,16.73868 9.43516,32.04572 24.38019,39.5836 v 0.002 c 5.3e-4,0 7.8e-4,8.4e-4 10e-4,8.4e-4 z"
       stroke-width="0"
       stroke-linejoin="miter"
       stroke-miterlimit="2"
       fill="#d7bb00"
       stroke="#d7bb00"
       style="font-style:normal;font-weight:700;font-size:72px;line-height:1;font-family:'Brandmark Sans 4 Spectrum';font-variant-ligatures:normal;text-align:center;text-anchor:middle;fill:#806600"
       id="path3" />
    <path
       class="c1"
       d="m 338.84765,372.12589 -4.78828,-11.32432 -0.0759,-0.17864 -0.014,-0.0356 -0.0636,-0.14896 -0.014,-0.0333 -0.0759,-0.17388 -0.0168,-0.0389 -0.0515,-0.11676 -0.0434,-0.0972 -0.0196,-0.0437 c -1.18919,-2.6502 -2.63508,-5.17832 -4.31704,-7.54768 h -0.003 l -79.93468,33.01844 c 1.197,7.31164 4.24791,14.19404 8.86144,19.99172 z"
       stroke-width="0"
       stroke-linejoin="miter"
       stroke-miterlimit="2"
       fill="#444444"
       stroke="#444444"
       style="font-style:normal;font-weight:700;font-size:72px;line-height:1;font-family:'Brandmark Sans 4 Spectrum';font-variant-ligatures:normal;text-align:center;text-anchor:middle"
       id="path4" />
    <path
       class="c3"
       d="m 294.07089,397.57341 c -3.61872,0.12992 -7.19488,-0.81284 -10.27964,-2.70928 l -0.80332,0.3318 -0.001,5.6e-4 2.8e-4,-5.6e-4 0.80304,-0.3318 c -0.2562,-0.1652 -0.50792,-0.33824 -0.75432,-0.51884 -4.4142,-3.22112 -9.79129,-8.90568 -8.58088,-19.2766 v -0.0238 c 0.74032,-6.797 5.03944,-12.68764 11.28736,-15.46496 2.18204,-0.96404 4.54272,-1.4574 6.92857,-1.44928 4.27532,0.006 8.42856,1.42884 11.80984,4.04628 0.1274,0.10783 0.25368,0.21924 0.37912,0.33432 l 0.003,-8.4e-4 c 6.48984,5.94664 9.38644,19.712 9.39876,19.77444 l 24.58627,-10.15896 -4.78828,-11.32432 -0.0759,-0.17864 -0.014,-0.0356 -0.0636,-0.14896 -0.014,-0.0333 -0.0759,-0.17388 -0.0168,-0.0389 -0.0515,-0.11676 -0.0434,-0.0972 -0.0196,-0.0437 c -0.0487,-0.10808 -0.112,-0.20916 -0.16156,-0.31724 -0.49812,-1.09088 -1.04303,-2.14986 -1.62064,-3.18556 -0.175,-0.31304 -0.36092,-0.61852 -0.5432,-0.9268 -0.53508,-0.9072 -1.09872,-1.78976 -1.69232,-2.64964 -0.10556,-0.1526 -0.1918,-0.31724 -0.29932,-0.46844 h -0.003 l -0.0168,0.007 c -8.21296,-11.58024 -21.61964,-18.6998 -36.169,-18.67992 l 0.0106,-0.004 c -24.48936,0.0266 -44.33576,19.87272 -44.3632,44.3618 0,2.50404 0.25564,4.93416 0.64764,7.31444 l -0.0451,0.0196 c 0.0605,0.36904 0.14616,0.73136 0.21616,1.09788 0.0669,0.35112 0.13132,0.70196 0.20636,1.05 0.25844,1.19616 0.56112,2.37888 0.9184,3.54508 0.0952,0.31108 0.20524,0.6132 0.30688,0.92064 0.31836,0.9618 0.66976,1.91072 1.0542,2.84648 0.12292,0.30014 0.23576,0.60452 0.36509,0.90046 0.47208,1.07942 0.99456,2.13556 1.55316,3.17324 0.1848,0.34302 0.37884,0.67928 0.5726,1.01696 0.50739,0.88536 1.04303,1.7542 1.61336,2.60316 0.13412,0.19964 0.25592,0.40824 0.3934,0.60564 0.5292,0.7602 1.08304,1.50472 1.6618,2.23216 l 10e-4,-8.7e-4 c 2.8e-4,0 2.8e-4,0 2.8e-4,8.7e-4 l 0.0356,-0.014 c -2.8e-4,-5.6e-4 -5.6e-4,-5.6e-4 -5.6e-4,-5.6e-4 l 10e-4,5.6e-4 h -8.4e-4 c 8.29416,10.42216 21.29932,17.05172 36.2222,17.05172 13.22972,0 23.83976,-4.22128 35.45892,-14.11284 l -15.80043,-18.56792 c -7.20098,6.12642 -12.82478,7.81986 -20.13782,7.81986 z"
       stroke-width="0"
       stroke-linejoin="miter"
       stroke-miterlimit="2"
       fill="#d7bb00"
       stroke="#d7bb00"
       style="font-style:normal;font-weight:700;font-size:72px;line-height:1;font-family:'Brandmark Sans 4 Spectrum';font-variant-ligatures:normal;text-align:center;text-anchor:middle"
       id="path5" />
    <path
       class="c2"
       d="m 329.34837,352.39401 -24.49023,10.11584 c 5.9e-4,5.6e-4 8.7e-4,5.6e-4 0.001,0.001 l 0.003,-8.4e-4 c 6.48004,5.93768 9.37664,19.66692 9.39792,19.77024 l 24.58711,-10.15473 -4.78828,-11.32435 -0.0759,-0.17864 -0.014,-0.0356 -0.0636,-0.14896 -0.014,-0.0333 -0.0759,-0.17388 -0.0168,-0.0389 -0.0515,-0.11676 -0.0434,-0.0972 -0.0196,-0.0437 c -0.0487,-0.10808 -0.112,-0.20916 -0.16156,-0.31724 -0.38164,-0.83524 -0.81144,-1.63802 -1.24124,-2.44048 -0.1316,-0.24612 -0.24332,-0.50176 -0.37968,-0.74564 -0.17472,-0.31248 -0.36064,-0.61796 -0.54292,-0.92624 -0.36229,-0.6146 -0.75712,-1.20176 -1.14632,-1.79452 -0.28784,-0.43764 -0.54208,-0.89628 -0.84532,-1.32356 h -0.003 l -0.0168,0.007 h -2.8e-4 z"
       stroke-width="0"
       stroke-linejoin="miter"
       stroke-miterlimit="2"
       fill="#d7bb00"
       stroke="#d7bb00"
       style="font-style:normal;font-weight:700;font-size:72px;line-height:1;font-family:'Brandmark Sans 4 Spectrum';font-variant-ligatures:normal;text-align:center;text-anchor:middle;fill:#806600"
       id="path6" />
    <path
       class="c2"
       d="m 258.29249,405.39633 0.035,-0.014 v 0 0 l 25.4646,-10.51708 c -2.8e-4,0 -5.6e-4,-8.4e-4 -8.4e-4,-8.4e-4 l -0.80332,0.3318 -0.001,5.6e-4 2.8e-4,-5.6e-4 0.80304,-0.3318 c -0.2562,-0.1652 -0.50792,-0.33824 -0.75432,-0.51884 -4.4142,-3.22112 -9.79129,-8.90568 -8.58088,-19.2766 v -5.6e-4 l -25.025,10.33732 c 0.0605,0.36904 0.14616,0.73136 0.21616,1.09788 0.008,0.0451 0.0179,0.0893 0.0263,0.13468 0.0594,0.30604 0.1148,0.6129 0.1806,0.91728 0.25816,1.1956 0.56084,2.37748 0.91784,3.54312 0.0952,0.31108 0.20524,0.6132 0.30688,0.92064 0.31836,0.9618 0.66976,1.91072 1.0542,2.84648 0.12292,0.30014 0.23576,0.60452 0.36509,0.90046 0.47208,1.07942 0.99428,2.13556 1.55288,3.17324 0.0196,0.0356 0.0409,0.0711 0.0608,0.1078 0.16688,0.30492 0.3388,0.60704 0.51212,0.90918 0.50708,0.88478 1.04216,1.7528 1.61196,2.60118 0.13524,0.20104 0.2576,0.4102 0.39592,0.60902 0.52864,0.75962 1.0822,1.50386 1.66068,2.23076 l 0.001,-8.6e-4 h 3.1e-4 z"
       stroke-width="0"
       stroke-linejoin="miter"
       stroke-miterlimit="2"
       fill="#d7bb00"
       stroke="#d7bb00"
       style="font-style:normal;font-weight:700;font-size:72px;line-height:1;font-family:'Brandmark Sans 4 Spectrum';font-variant-ligatures:normal;text-align:center;text-anchor:middle;fill:#806600"
       id="path7" />
    <polyline
       class="c1"
       points="104.3541,74.8159 95.6459,74.8159 95.6459,125.1841 104.3541,125.1841 104.3541,74.8159 "
       transform="matrix(2.8,0,0,2.8,99.930004,72.10268)"
       stroke-width="0"
       stroke-linejoin="miter"
       stroke-miterlimit="2"
       fill="#444444"
       stroke="#444444"
       style="font-style:normal;font-weight:700;font-size:72px;line-height:1;font-family:'Brandmark Sans 4 Spectrum';font-variant-ligatures:normal;text-align:center;text-anchor:middle"
       id="polyline7" />
    <polyline
       class="c1"
       points="104.3541,74.8159 95.6459,74.8159 95.6459,125.1841 104.3541,125.1841 104.3541,74.8159 "
       transform="matrix(2.8,0,0,2.8,157.28627,72.10268)"
       stroke-width="0"
       stroke-linejoin="miter"
       stroke-miterlimit="2"
       fill="#444444"
       stroke="#444444"
       style="font-style:normal;font-weight:700;font-size:72px;line-height:1;font-family:'Brandmark Sans 4 Spectrum';font-variant-ligatures:normal;text-align:center;text-anchor:middle"
       id="polyline8" />
    <polyline
       class="c1"
       points="104.3538,93.4688 95.64619,93.4688 95.64619,125.1134 104.3538,125.1134 104.3538,93.4688 "
       transform="matrix(2.8,0,0,2.8,214.64169,72.10632)"
       stroke-width="0"
       stroke-linejoin="miter"
       stroke-miterlimit="2"
       fill="#444444"
       stroke="#444444"
       style="font-style:normal;font-weight:700;font-size:72px;line-height:1;font-family:'Brandmark Sans 4 Spectrum';font-variant-ligatures:normal;text-align:center;text-anchor:middle"
       id="polyline9" />
    <polyline
       class="c3"
       points="104.3538,74.8866 95.64619,74.8866 95.64619,84.078 104.3538,84.078 104.3538,74.8866 "
       transform="matrix(2.8,0,0,2.8,214.64169,72.10632)"
       stroke-width="0"
       stroke-linejoin="miter"
       stroke-miterlimit="2"
       fill="#d7bb00"
       stroke="#d7bb00"
       style="font-style:normal;font-weight:700;font-size:72px;line-height:1;font-family:'Brandmark Sans 4 Spectrum';font-variant-ligatures:normal;text-align:center;text-anchor:middle"
       id="polyline10" />
    <path
       class="c1"
       d="m 578.78806,333.60448 v -0.004 c -5.0038,-0.005 -9.96128,0.95788 -14.5992,2.83612 -14.72296,5.96512 -24.36364,20.25632 -24.38128,36.14184 v 49.80864 h 24.38128 v -49.80472 c 0,-8.06232 6.53576,-14.59808 14.5978,-14.59808 8.06204,0 14.5978,6.53576 14.5978,14.59808 V 422.391 h 24.38134 v -49.80864 c -0.0252,-21.5166 -17.46086,-38.95304 -38.97774,-38.97768 z"
       stroke-width="0"
       stroke-linejoin="miter"
       stroke-miterlimit="2"
       fill="#444444"
       stroke="#444444"
       style="font-style:normal;font-weight:700;font-size:72px;line-height:1;font-family:'Brandmark Sans 4 Spectrum';font-variant-ligatures:normal;text-align:center;text-anchor:middle"
       id="path10" />
    <rect
       x="539.80731"
       y="333.60001"
       class="c3"
       width="24.381559"
       height="88.78688"
       stroke-width="0"
       stroke-linejoin="miter"
       stroke-miterlimit="2"
       fill="#d7bb00"
       stroke="#d7bb00"
       style="font-style:normal;font-weight:700;font-size:72px;line-height:1;font-family:'Brandmark Sans 4 Spectrum';font-variant-ligatures:normal;text-align:center;text-anchor:middle"
       id="rect10" />
    <path
       class="c2"
       d="m 539.80758,372.57824 v 49.80864 h 24.38128 V 372.58216 336.4364 c -14.72296,5.96512 -24.36364,20.25632 -24.38128,36.14184 z"
       stroke-width="0"
       stroke-linejoin="miter"
       stroke-miterlimit="2"
       fill="#d7bb00"
       stroke="#d7bb00"
       style="font-style:normal;font-weight:700;font-size:72px;line-height:1;font-family:'Brandmark Sans 4 Spectrum';font-variant-ligatures:normal;text-align:center;text-anchor:middle;fill:#806600;fill-opacity:1"
       id="path11" />
    <path
       class="c1"
       d="m 736.81462,333.60011 c -6.33052,-0.0185 -12.40509,2.49732 -16.86944,6.98572 -0.4172,0.41636 -0.81676,0.8456 -1.19868,1.28772 10e-4,8.7e-4 0.003,0.002 0.003,0.003 h -8.4e-4 c -3.75144,4.3246 -5.80888,9.86216 -5.79208,15.58676 v 20.50216 c -0.014,11.02976 -8.95104,19.96792 -19.9808,19.9808 h -16.14189 c -6.96755,-0.006 -13.68895,2.57572 -18.86027,7.24556 2.8e-4,0 2.8e-4,5.6e-4 5.6e-4,5.6e-4 -5.6e-4,-5.6e-4 -0.001,-10e-4 -0.002,-0.002 l 10e-4,0.002 c -8.69453,7.81004 -11.67348,20.17291 -7.48972,31.08588 4.18345,10.91272 14.66248,18.11569 26.34999,18.11236 h 32.28229 c 2.121,0 3.84023,1.7192 3.84023,3.83964 0,2.12128 -1.71923,3.84048 -3.84023,3.84048 h -28.33155 v 24.381 h 28.33236 c 15.58676,0 28.22232,-12.63528 28.22232,-28.22204 0,-15.58648 -12.63556,-28.22204 -28.22232,-28.22204 h -32.28229 c -2.12131,0 -3.84079,-1.71948 -3.84079,-3.84048 0,-2.12128 1.71951,-3.84104 3.84079,-3.84104 h 16.10165 c 0.0126,0 0.0272,0.001 0.0401,0.001 14.68572,0.006 28.0756,-7.23156 36.23312,-18.78716 0.0524,-0.0745 0.0997,-0.15176 0.15176,-0.22624 0.60623,-0.87024 1.1872,-1.76036 1.73264,-2.67764 0.11368,-0.19012 0.21504,-0.38892 0.32592,-0.58184 0.46567,-0.81004 0.917,-1.63016 1.3328,-2.47436 0.15652,-0.31668 0.29456,-0.64484 0.4438,-0.966 0.34132,-0.73696 0.67735,-1.47588 0.97972,-2.23608 0.1792,-0.44856 0.33376,-0.90972 0.49927,-1.3664 0.18116,-0.50176 0.38528,-0.9912 0.54908,-1.50332 0.0504,-0.15652 0.0882,-0.32956 0.13664,-0.48888 0.042,-0.1358 0.0974,-0.26516 0.13832,-0.40124 h -0.001 c -0.0389,0.12936 -0.0913,0.25172 -0.13104,0.3808 1.64668,-5.418 2.28396,-12.20072 1.96896,-19.11196 v -13.9034 h 11.66928 v -24.38184 -10e-4 z m -7.59615,69.92608 c 0.0358,-0.0504 0.0686,-0.10385 0.10416,-0.15568 -0.0358,0.0512 -0.068,0.10528 -0.10416,0.15568 z m 1.88443,-2.9064 c 0.0974,-0.16352 0.1848,-0.33432 0.28028,-0.4998 -0.0955,0.16548 -0.18256,0.33628 -0.28028,0.4998 z m 1.65872,-3.05984 c 0.14168,-0.28784 0.26768,-0.58576 0.40351,-0.8778 -0.13608,0.2912 -0.26124,0.58996 -0.40351,0.8778 z m 1.42072,-3.19928 c 0.16856,-0.42392 0.31559,-0.85932 0.47152,-1.28993 -0.15652,0.43061 -0.30243,0.86685 -0.47152,1.28993 z"
       stroke-width="0"
       stroke-linejoin="miter"
       stroke-miterlimit="2"
       fill="#444444"
       stroke="#444444"
       style="font-style:normal;font-weight:700;font-size:72px;line-height:1;font-family:'Brandmark Sans 4 Spectrum';font-variant-ligatures:normal;text-align:center;text-anchor:middle;display:inline"
       id="path12" />
    <path
       class="c3"
       d="m 692.97642,333.60011 c -24.50056,0 -44.36236,19.8618 -44.36236,44.36264 0,24.5 19.86183,44.36183 44.36236,44.36183 24.50084,0 44.36236,-19.86183 44.36236,-44.36183 0,-24.50084 -19.86152,-44.36264 -44.36236,-44.36264 z m 0,64.3426 c -11.03508,0 -19.98049,-8.94544 -19.98049,-19.98052 0,-11.0348 8.94541,-19.9808 19.98049,-19.9808 11.03511,0 19.9808,8.946 19.9808,19.9808 0,11.03508 -8.94569,19.98052 -19.9808,19.98052 z"
       stroke-width="0"
       stroke-linejoin="miter"
       stroke-miterlimit="2"
       fill="#d7bb00"
       stroke="#d7bb00"
       style="font-style:normal;font-weight:700;font-size:72px;line-height:1;font-family:'Brandmark Sans 4 Spectrum';font-variant-ligatures:normal;text-align:center;text-anchor:middle;display:inline"
       id="path13" />
    <path
       class="c2"
       d="m 718.73673,341.89203 c -3.74282,4.3218 -5.79631,9.85348 -5.77951,15.57108 v 20.50216 c 0,0.0507 -0.008,0.1 -0.008,0.1512 -0.0756,9.86636 -7.30212,18.00792 -16.75212,19.54316 -1.05084,0.17164 -2.12156,0.28507 -3.22084,0.28644 h -16.14169 c -6.95943,-0.006 -13.6724,2.57096 -18.84179,7.23044 8.11779,10.41936 20.75139,17.14807 34.98348,17.14807 1.3916,0 2.76304,-0.0829 4.12191,-0.2086 0.23265,-0.0224 0.46617,-0.0384 0.69801,-0.0644 1.28352,-0.13804 2.54968,-0.33348 3.79792,-0.5796 0.28168,-0.0554 0.56028,-0.12096 0.84028,-0.18172 1.12868,-0.24556 2.24252,-0.5292 3.33732,-0.85792 0.21224,-0.0644 0.42616,-0.1232 0.63728,-0.19012 1.09452,-0.34804 2.16384,-0.75068 3.21969,-1.17852 0.36067,-0.147 0.72159,-0.2926 1.07772,-0.44772 1.04104,-0.45531 2.06304,-0.94416 3.0604,-1.47448 0.33712,-0.17976 0.665,-0.37324 0.99705,-0.5614 0.81732,-0.462 1.61868,-0.94808 2.40296,-1.45992 0.27272,-0.1778 0.553,-0.34468 0.82152,-0.5278 0.93299,-0.6384 1.83148,-1.32216 2.71124,-2.02748 0.31808,-0.25564 0.63308,-0.51492 0.94416,-0.77868 0.8596,-0.7294 1.69932,-1.48064 2.50068,-2.27304 0.23912,-0.23579 0.46422,-0.4872 0.69804,-0.72943 0.63196,-0.65268 1.24208,-1.32605 1.83316,-2.01712 0.26432,-0.30912 0.53424,-0.6132 0.79044,-0.93044 0.68292,-0.84364 1.33056,-1.7164 1.95135,-2.60932 0.36876,-0.53172 0.70977,-1.08556 1.05725,-1.63436 0.3514,-0.55664 0.69888,-1.11496 1.02592,-1.68784 0.33012,-0.57848 0.64204,-1.16844 0.94864,-1.76232 0.29851,-0.58184 0.57988,-1.1732 0.85291,-1.77044 0.27832,-0.60452 0.55101,-1.21153 0.80273,-1.83148 0.41636,-1.03208 0.81144,-2.07536 1.1508,-3.14384 0.0353,-0.12575 0.0678,-0.25427 0.10528,-0.37744 0.0224,-0.0697 0.0459,-0.1372 0.0708,-0.20496 10e-4,-0.006 0.002,-0.0104 0.003,-0.0151 -0.0252,0.0658 -0.0482,0.13188 -0.0689,0.19964 1.16004,-3.81724 1.79228,-8.32748 1.97036,-13.06673 -0.0112,-14.87167 -7.36139,-27.99807 -18.60059,-36.03995 z"
       stroke-width="0"
       stroke-linejoin="miter"
       stroke-miterlimit="2"
       fill="#d7bb00"
       stroke="#d7bb00"
       style="font-style:normal;font-weight:700;font-size:72px;line-height:1;font-family:'Brandmark Sans 4 Spectrum';font-variant-ligatures:normal;text-align:center;text-anchor:middle;display:inline;fill:#806600"
       id="path14" />
    <path
       fill="#838383"
       opacity="1"
       d="m 825.02802,310.6926 h 4.699 c 5.52662,0.58823 11.0122,2.18192 15.73172,5.18463 8.85764,5.47874 14.99985,15.19137 15.89588,25.60166 0.38303,4.64428 0.24623,9.31592 0.71134,13.96019 2.07933,22.7768 8.80977,44.78069 16.34047,66.27158 -4.92471,0.171 -9.84942,0.1026 -14.77413,0.1026 -29.08317,-0.0752 -58.17317,0.16416 -87.25633,-0.11628 10.32138,-24.00797 16.6551,-49.92427 16.77822,-76.12784 0.0137,-6.57312 1.66209,-13.18045 5.20515,-18.75495 5.65658,-9.25435 15.90272,-15.24609 26.66868,-16.12159 z"
       style="fill:#d7bb00;fill-opacity:1;stroke-width:0.683988"
       id="path15" />
    <path
       fill="#838383"
       opacity="1"
       d="m 810.09657,430.46571 c 11.51835,-0.12996 23.05039,-0.12996 34.56874,0 -0.50615,3.58409 -1.30641,7.28447 -3.61829,10.18458 -2.79067,3.84401 -7.29131,6.09433 -11.90823,6.83987 h -3.50886 c -3.50201,-0.62242 -6.97667,-1.922 -9.63055,-4.35016 -3.74141,-3.1395 -5.37614,-7.96162 -5.90281,-12.67429 z"
       style="fill:#806600;stroke-width:0.683988"
       id="path16" />
  </g>
</svg>
